<svg width="105" height="41" viewBox="0 0 105 41" fill="none" xmlns="http://www.w3.org/2000/svg">
<path d="M1.10248 35.8809H0V40.6548H3.30743V39.7H1.10248V35.8809Z" fill="white"/>
<path d="M5.9825 35.8809L4.04004 40.6548H5.19502L5.51001 39.8005H7.45247L7.76747 40.6548H8.92244L6.97998 35.8809H5.9825ZM5.825 38.896L6.45499 37.1874L7.08498 38.896H5.825Z" fill="white"/>
<path d="M13.8603 39.097L12.6528 35.8809H11.4453L13.3353 40.6548H14.2803L16.2227 35.8809H15.0677L13.8603 39.097Z" fill="white"/>
<path d="M21.4188 36.4828C21.1563 36.2316 20.8938 36.0808 20.5788 35.9803C20.2638 35.8798 19.8963 35.7793 19.5288 35.7793C19.1613 35.7793 18.7938 35.8296 18.4788 35.9803C17.8488 36.2316 17.3764 36.6838 17.1139 37.2869C16.8514 37.8899 16.8514 38.5934 17.1139 39.2467C17.2189 39.5482 17.4289 39.7995 17.6914 40.0508C17.9538 40.302 18.2163 40.4528 18.5313 40.5533C18.8463 40.704 19.2138 40.7543 19.5813 40.7543C19.9488 40.7543 20.2638 40.704 20.6313 40.5533C20.9463 40.4528 21.2088 40.2518 21.4713 40.0508C21.7338 39.8497 21.8913 39.5482 21.9963 39.2467C22.1538 38.9452 22.2063 38.5934 22.2063 38.2919C22.2063 37.9402 22.1538 37.6386 21.9963 37.3371C21.8388 37.0356 21.6813 36.7843 21.4188 36.5331M20.8413 38.9955C20.7363 39.1965 20.5263 39.3975 20.3163 39.498C20.0538 39.6487 19.7913 39.699 19.5288 39.699C19.3188 39.699 19.1088 39.699 18.9513 39.5985C18.7938 39.5482 18.6363 39.4477 18.4788 39.297C18.3213 39.1462 18.2163 38.9955 18.1638 38.7944C18.1113 38.5934 18.0588 38.3924 18.0588 38.1914C18.0588 37.9402 18.1113 37.6386 18.2688 37.4376C18.3738 37.2366 18.5838 37.0356 18.7938 36.9351C19.0563 36.7843 19.3188 36.7341 19.5813 36.7341C19.7913 36.7341 20.0013 36.7341 20.1588 36.8346C20.3163 36.8849 20.4738 36.9854 20.6313 37.1361C20.7888 37.2869 20.8938 37.4376 20.9463 37.5884C20.9988 37.7894 21.0513 37.9904 21.0513 38.1914C21.0513 38.4427 20.9988 38.7442 20.8413 38.9955Z" fill="white"/>
<path d="M24.5156 35.8809H23.4131V40.6548H24.5156V35.8809Z" fill="white"/>
<path d="M27.195 38.6447H29.4V37.7402H27.195V36.7854H29.61V35.8809H26.04V40.6548H29.61V39.7503H27.1425V38.695L27.195 38.6447Z" fill="white"/>
<path d="M36.7463 36.5338C36.4838 36.3328 36.2213 36.1318 35.9063 36.0313C35.5913 35.9308 35.2238 35.8303 34.8563 35.8806H32.8613V40.6545H34.8563C35.2238 40.6545 35.5388 40.6043 35.9063 40.5038C36.2213 40.4033 36.4838 40.2525 36.7463 40.0013C37.0087 39.8002 37.1662 39.549 37.2712 39.2475C37.5337 38.6444 37.5337 37.9409 37.2712 37.3379C37.1662 37.0364 36.9562 36.7851 36.7463 36.5841M36.1688 38.9962C36.0638 39.1972 35.8538 39.3982 35.6438 39.4987C35.3813 39.5992 35.1188 39.6997 34.8563 39.6495H33.9638V36.7348H34.8563C35.1188 36.7348 35.3813 36.7851 35.6438 36.8856C35.8538 36.9861 36.0638 37.1871 36.1688 37.3881C36.2738 37.6394 36.3788 37.8907 36.3788 38.1419C36.3788 38.3932 36.3263 38.6947 36.1688 38.946" fill="white"/>
<path d="M39.8454 38.6447H42.0504V37.7402H39.8454V36.7854H42.2604V35.8809H38.6904V40.6548H42.2604V39.7503H39.7929V38.695L39.8454 38.6447Z" fill="white"/>
<path d="M46.4617 38.1914C46.3042 38.0909 46.1992 37.9904 45.9892 37.9402C45.8317 37.8899 45.6742 37.7894 45.4643 37.7391C45.3068 37.6889 45.1493 37.6386 44.9918 37.5884C44.8868 37.5884 44.7293 37.4879 44.6768 37.3874C44.5718 37.3371 44.5718 37.1864 44.5718 37.0859C44.5718 36.9854 44.6243 36.8346 44.7293 36.7843C44.8868 36.7341 45.0443 36.6838 45.2018 36.6838C45.3593 36.6838 45.5692 36.6838 45.7267 36.7843C45.8842 36.8849 46.0417 36.9854 46.1992 37.1361L46.9342 36.4326C46.7242 36.2316 46.5142 36.0808 46.1992 35.9803C45.8842 35.8798 45.5692 35.7793 45.2543 35.7793C44.9393 35.7793 44.6243 35.8296 44.3618 35.9301C43.8368 36.1311 43.4693 36.6336 43.5218 37.1864C43.5218 37.3874 43.5218 37.5884 43.6268 37.7894C43.6793 37.9402 43.8368 38.0909 43.9418 38.1914C44.0993 38.2919 44.2568 38.3924 44.4143 38.4427C44.5718 38.4929 44.7293 38.5934 44.9393 38.6437C45.0968 38.6939 45.2543 38.7442 45.4118 38.7944C45.5168 38.7944 45.6742 38.8949 45.7267 38.9955C45.8317 39.096 45.8317 39.1965 45.8317 39.297C45.8317 39.4477 45.7792 39.5482 45.6218 39.6487C45.4643 39.7492 45.2543 39.7995 45.0968 39.7492C44.8343 39.7492 44.6243 39.7492 44.4143 39.5985C44.2043 39.498 44.0468 39.3472 43.8893 39.1965L43.1543 39.9C43.3643 40.1513 43.6268 40.3523 43.9418 40.503C44.2568 40.6538 44.6243 40.704 44.9918 40.704C45.5168 40.704 45.9892 40.6035 46.4092 40.302C46.7242 40.0508 46.9342 39.6487 46.9342 39.2467C46.9342 39.0457 46.9342 38.7944 46.8292 38.6437C46.7242 38.4929 46.6192 38.3422 46.4617 38.2417" fill="white"/>
<path d="M53.0259 36.033C52.7634 35.9325 52.4484 35.832 52.1859 35.832H50.0859V40.606H51.1884V38.8472H52.1859C52.5009 38.8472 52.7634 38.7969 53.0259 38.6462C53.2884 38.5457 53.4984 38.3447 53.6034 38.1436C53.7609 37.8924 53.8134 37.6411 53.8134 37.3396C53.8134 37.0381 53.7609 36.7868 53.6034 36.5356C53.4459 36.2843 53.2359 36.1335 53.0259 36.033ZM52.6584 37.7416C52.6059 37.8421 52.5009 37.9426 52.3959 37.9929C52.2909 38.0431 52.1334 38.0431 52.0284 38.0431H51.2409V36.6863H52.0284C52.1334 36.6863 52.2909 36.6863 52.3959 36.7366C52.5009 36.7868 52.6059 36.8873 52.6584 36.9878C52.7109 37.0883 52.7634 37.2391 52.7634 37.3899C52.7634 37.5406 52.7634 37.6411 52.6584 37.7919" fill="white"/>
<path d="M57.5942 38.494L55.8617 35.8809H55.0742V40.6548H56.1767V38.0417L57.2267 39.6498H57.9617L59.0116 38.0417V40.6548H60.1141V35.8809H59.3266L57.5942 38.494Z" fill="white"/>
<path d="M62.737 39.7V38.6447H64.942V37.7402H62.737V36.7854H65.152V35.8809H61.582V40.6548H65.152V39.7503H62.6845L62.737 39.7Z" fill="white"/>
<path d="M68.7727 7.88867C63.3653 7.88867 59.5854 10.7531 59.5854 14.8235V20.8538C59.5854 22.6126 58.2204 23.6679 56.0154 23.6679C53.8105 23.6679 52.4455 22.5624 52.4455 20.8538V9.94902H46.8281V20.8538C46.8281 24.9242 50.6081 27.7886 56.0154 27.7886C61.4228 27.7886 65.2028 24.9242 65.2028 20.8538V14.8235C65.2028 13.0647 66.5677 12.0094 68.7727 12.0094C70.9776 12.0094 72.3426 13.1149 72.3426 14.8235V27.5374H77.96V14.8235C77.96 10.7531 74.1801 7.88867 68.7727 7.88867Z" fill="white"/>
<path d="M15.4347 27.5387L10.7623 21.1566H5.61739V27.5387H0V4.67383H10.4473C12.3373 4.67383 14.2797 4.97534 16.0122 5.67888C17.4822 6.28191 18.7421 7.28695 19.6871 8.54326C20.5796 9.84983 20.9996 11.4077 20.9471 12.9655C20.9471 14.5233 20.5271 16.0309 19.6346 17.3374C18.7421 18.5938 17.4297 19.5988 15.9597 20.1516L21.3671 27.4884H15.3822L15.4347 27.5387ZM13.9647 10.0006C13.0722 9.29705 11.8123 8.99554 10.1323 8.99554H5.56489V16.9354H10.1323C11.8123 16.9354 13.0722 16.5837 13.9647 15.8801C14.8572 15.1263 15.3297 14.071 15.2772 12.9655C15.3297 11.8599 14.8572 10.7544 13.9647 10.0006Z" fill="white"/>
<path d="M101.22 10.3505C102.428 9.89828 103.687 9.69727 105 9.69727V14.421C104.422 14.421 104.002 14.3707 103.792 14.3707C102.48 14.2702 101.168 14.7225 100.17 15.5768C99.2776 16.3808 98.8576 17.6371 98.8576 19.2452V27.5369H93.4502V9.94853H98.5951V12.2601C99.2776 11.4058 100.17 10.7526 101.22 10.3505Z" fill="white"/>
<path d="M83.0535 9.95196H88.4609V27.5403H83.0535V9.95196ZM88.7759 2.86637C88.7759 4.47445 87.4109 5.73076 85.731 5.68051C84.1035 5.68051 82.791 4.4242 82.791 2.86637C82.791 1.2583 84.156 0.00198528 85.836 0.0522377C87.4634 0.0522377 88.7759 1.30855 88.7759 2.86637Z" fill="white"/>
<path d="M43.0474 20.1512H28.9777C29.1877 21.2065 29.8702 22.111 30.7627 22.7141C31.8126 23.3673 33.0201 23.7191 34.2801 23.6689C35.1726 23.6689 36.0126 23.5684 36.8525 23.2668C37.64 22.9653 38.3225 22.5131 38.9525 21.9603L41.84 24.8749C40.1075 26.7845 37.535 27.7393 34.1751 27.7393C32.2326 27.7393 30.3427 27.3875 28.6102 26.5835C27.0877 25.88 25.7753 24.7744 24.8828 23.3673C23.9903 21.9603 23.5703 20.3522 23.5703 18.6939C23.5703 17.0355 23.9903 15.4275 24.8828 14.0204C25.7228 12.6636 26.9827 11.5078 28.4527 10.8042C30.0277 10.0002 31.7602 9.64844 33.4926 9.64844C35.2251 9.64844 36.905 10.0002 38.4275 10.754C39.8975 11.4575 41.105 12.5631 41.8925 13.9199C42.7324 15.3772 43.2049 17.0355 43.1524 18.7441C43.1524 19.1964 43.1524 19.6487 43.0474 20.1009M30.4477 14.5229C29.6077 15.1762 29.0827 16.131 28.9252 17.1863H38.06C37.9025 16.131 37.3775 15.1762 36.5376 14.5229C35.6976 13.8696 34.5951 13.5179 33.4926 13.5179C32.3901 13.5179 31.2877 13.8194 30.3952 14.4727" fill="white"/>
<path d="M27.9834 4.62322L37.0132 0L38.7982 3.11565L29.8209 7.73887L28.0359 4.62322H27.9834Z" fill="white"/>
</svg>
